HIERARCHY
ROOT Hips
{
	OFFSET	0.000000	0.000000	0.000000
	CHANNELS 6 Xposition Yposition Zposition Zrotation Xrotation Yrotation
	JOINT LeftUpLeg
	{
		OFFSET	11.840439	-0.173119	-0.075538
		CHANNELS 3 Zrotation Xrotation Yrotation
		JOINT LeftLeg
		{
			OFFSET	0.064808	-44.851322	-0.897377
			CHANNELS 3 Zrotation Xrotation Yrotation
			JOINT LeftFoot
			{
				OFFSET	-0.002027	-48.741835	-4.235425
				CHANNELS 3 Zrotation Xrotation Yrotation
				JOINT LeftFootHeel
				{
					OFFSET	1.024061	-8.290356	-4.351312
					CHANNELS 3 Zrotation Xrotation Yrotation
					End Site
					{
						OFFSET	0.000000	-0.000002	21.023995
					}
				}
			}
		}
	}
	JOINT RightUpLeg
	{
		OFFSET	-11.143184	-0.298897	0.753999
		CHANNELS 3 Zrotation Xrotation Yrotation
		JOINT RightLeg
		{
			OFFSET	-0.215917	-44.628559	-2.024469
			CHANNELS 3 Zrotation Xrotation Yrotation
			JOINT RightFoot
			{
				OFFSET	-0.134178	-49.374297	-3.937864
				CHANNELS 3 Zrotation Xrotation Yrotation
				JOINT RightFootHeel
				{
					OFFSET	-0.659746	-7.754899	-4.748771
					CHANNELS 3 Zrotation Xrotation Yrotation
					End Site
					{
						OFFSET	-0.827408	0.000005	20.422375
					}
				}
			}
		}
	}
	JOINT Spine
	{
		OFFSET	0.050506	11.047144	0.726697
		CHANNELS 3 Zrotation Xrotation Yrotation
		JOINT Spine1
		{
			OFFSET	0.042168	10.113822	0.001417
			CHANNELS 3 Zrotation Xrotation Yrotation
			JOINT LeftShoulder
			{
				OFFSET	5.191633	33.202372	2.074730
				CHANNELS 3 Zrotation Xrotation Yrotation
				JOINT LeftArm
				{
					OFFSET	13.418006	-0.294033	-3.545941
					CHANNELS 3 Zrotation Xrotation Yrotation
					JOINT LeftForeArm
					{
						OFFSET	5.282285	-33.620963	-4.164127
						CHANNELS 3 Zrotation Xrotation Yrotation
						JOINT LeftHand
						{
							OFFSET	3.940124	-29.810709	5.709310
							CHANNELS 3 Zrotation Xrotation Yrotation
							End Site
							{
								OFFSET	-0.517837	-9.723881	0.844149
							}
						}
					}
				}
			}
			JOINT RightShoulder
			{
				OFFSET	-4.283481	33.202372	2.074730
				CHANNELS 3 Zrotation Xrotation Yrotation
				JOINT RightArm
				{
					OFFSET	-14.397074	0.178497	-3.888105
					CHANNELS 3 Zrotation Xrotation Yrotation
					JOINT RightForeArm
					{
						OFFSET	-3.732606	-33.365691	-2.106234
						CHANNELS 3 Zrotation Xrotation Yrotation
						JOINT RightHand
						{
							OFFSET	-5.384318	-29.907227	4.553331
							CHANNELS 3 Zrotation Xrotation Yrotation
							End Site
							{
								OFFSET	0.014456	-10.034930	1.568668
							}
						}
					}
				}
			}
			JOINT Neck
			{
				OFFSET	0.459242	36.619940	-3.690848
				CHANNELS 3 Zrotation Xrotation Yrotation
				JOINT Head
				{
					OFFSET	-0.180655	11.033758	4.523384
					CHANNELS 3 Zrotation Xrotation Yrotation
					End Site
					{
						OFFSET	-0.426913	13.396161	-0.014943
					}
				}
			}
		}
	}
}
MOTION
Frames:     9
Frame Time: 0.041667
0.027145	73.612531	-0.148458	19.420393	1.292247	84.830673	-34.139099	-54.703697	-13.687400	44.482204	68.714600	-57.053894	-12.623499	4.757370	27.722795	0.	0.	0.	-35.100994	-52.057098	-46.397602	-46.947197	67.529266	30.046904	1.199399	5.629838	9.377587	0.	0.	0.	-0.000000	0.000000	-0.000000	-5.095541	21.923496	-33.348797	0.756624	5.599041	16.181997	0.552079	-4.484577	-2.861683	-39.382305	-43.877872	-52.450405	14.385808	-25.233992	-39.050705	0.242572	6.523982	16.449200	-11.872703	-20.461596	-15.238297	-8.130908	-51.863194	-15.784396	-16.675903	-15.423100	-5.130312	-2.358881	8.758090	15.156598	-4.581480	10.506406	-15.348595	
0.029000	73.622075	-0.145180	19.420389	1.292327	84.830971	-34.147205	-54.710609	-13.722801	44.463314	68.699570	-57.031895	-12.660204	4.772893	27.725401	0.	0.	0.	-35.088909	-52.045898	-46.460400	-47.042007	67.467361	30.150682	1.203096	5.630249	9.374601	0.	0.	0.	-0.000000	0.000002	-0.000000	-4.240110	22.099703	-33.615501	-0.033978	4.920743	15.798499	0.392219	-4.208095	-2.136617	-39.638405	-44.081913	-52.666195	14.019105	-25.087011	-39.563507	-0.624290	6.191044	15.863201	-7.154171	-16.861397	-14.573493	-9.998107	-61.473991	-19.223295	-18.944996	-15.366301	-8.292136	-3.092063	8.240973	14.257501	-4.002712	10.540304	-15.845095	
0.036819	73.626377	-0.145950	19.418896	1.275717	84.802643	-34.099010	-54.727402	-13.690102	44.453705	68.698196	-57.020901	-12.670500	4.778316	27.726898	0.	0.	0.	-35.042912	-52.052700	-46.450199	-47.066624	67.443184	30.186687	1.208525	5.631214	9.374790	0.	0.	0.	-0.000000	0.000000	0.000000	-3.624822	22.111502	-33.911800	-0.575155	4.501995	15.229506	0.201558	-3.749047	-1.746294	-39.664803	-44.509926	-52.744987	14.162202	-24.918617	-39.752998	-1.295544	6.056274	15.040698	-3.551425	-13.530300	-14.202196	-6.404908	-67.569572	-16.178505	-17.913996	-13.092506	-9.697553	-3.601263	8.013215	13.438301	-3.697821	10.578805	-16.093998	
0.112275	73.664020	-0.217337	19.410133	1.176149	84.671974	-33.969593	-54.788715	-13.603499	44.532703	68.698341	-57.028793	-12.670099	4.775911	27.729397	0.	0.	0.	-34.918991	-52.016308	-46.339596	-46.837505	67.444229	30.080004	1.227938	5.651742	9.379658	0.	0.	0.	-0.000000	0.000000	-0.000000	-3.518970	22.013706	-33.911098	-0.575214	4.518592	14.577891	0.151692	-3.386219	-1.588039	-39.767590	-44.903992	-52.763512	14.632909	-24.857700	-39.624306	-1.366332	6.272014	14.280191	-1.967400	-10.225601	-13.266609	-0.062735	-70.121529	-10.186432	-15.735592	-10.194002	-9.797205	-3.637682	8.256194	12.312791	-3.683105	10.443309	-15.766912	
0.170382	73.703770	-0.334200	19.458889	1.070958	84.548943	-33.914906	-54.739700	-13.569101	44.698906	68.679802	-57.059608	-12.687497	4.746219	27.748507	0.	0.	0.	-34.839710	-51.904800	-46.085304	-46.221508	67.558548	29.587605	1.239319	5.733039	9.402365	0.	0.	0.	0.000000	-0.000000	0.000000	-3.850380	21.902700	-33.880699	-0.132061	4.887042	14.211507	0.000987	-3.263028	-1.769592	-39.652618	-45.158115	-52.647091	15.158596	-24.777512	-39.389095	-0.946310	6.779681	13.842506	-1.700812	-7.782055	-12.254296	8.389715	-69.527817	-2.890485	-15.900208	-9.350902	-10.134300	-3.276501	8.794712	11.861506	-3.684961	10.211101	-15.796995	
0.180318	73.721342	-0.463891	19.592375	0.986081	84.473785	-33.908699	-54.591400	-13.520394	44.865005	68.603386	-57.126385	-12.728799	4.743306	27.817596	0.	0.	0.	-34.783302	-51.734001	-45.711693	-45.423912	67.737732	28.849497	1.255037	5.852872	9.445864	0.	0.	0.	0.000000	0.000003	0.000000	-4.379179	21.781502	-33.782597	0.467821	5.403738	14.055601	-0.095819	-3.320042	-2.052571	-39.419811	-45.182980	-52.446404	15.499086	-24.849590	-38.986382	-0.374310	7.387927	13.645604	-1.901780	-6.382782	-11.591002	13.391996	-68.559952	1.162579	-15.207005	-8.139395	-10.703795	-2.725819	9.442456	11.631605	-3.814959	10.013991	-15.919298	
0.093967	73.678021	-0.537581	19.729870	0.901516	84.606308	-34.005005	-54.426407	-13.538601	45.248497	68.493515	-57.561092	-12.774205	4.750455	27.910995	0.	0.	0.	-34.843403	-51.556404	-45.503098	-44.735310	67.942764	28.085087	1.271176	5.969914	9.494530	0.	0.	0.	-0.000000	0.000002	-0.000000	-4.624901	21.747002	-33.911499	0.876266	5.655445	14.104296	-0.218986	-3.451085	-2.463574	-39.029610	-45.135002	-52.201805	15.638001	-24.901810	-38.637501	-0.087605	7.630405	13.605498	-1.876811	-5.868133	-10.930401	15.488207	-67.109047	2.999932	-15.780492	-8.117360	-11.064803	-2.318082	9.933876	11.411401	-3.927883	9.826456	-16.053606	
0.013056	73.610147	-0.610522	19.759012	0.800302	84.795464	-34.048798	-54.261086	-13.607097	45.390800	68.360710	-57.809204	-12.796102	4.746712	27.986898	0.	0.	0.	-34.972492	-51.462788	-45.464996	-44.231903	68.116302	27.484102	1.300798	6.060447	9.538624	0.	0.	0.	0.000000	0.000003	-0.000000	-4.688000	21.751400	-34.030502	1.133538	5.612680	14.246394	-0.246911	-3.621700	-2.777054	-38.694408	-44.951988	-51.879906	15.518502	-24.967199	-38.569813	0.101267	7.486862	13.645496	-1.545802	-5.752479	-9.924017	14.818518	-65.911385	2.472378	-17.468794	-9.042319	-11.042207	-2.094743	10.150702	11.198498	-3.840884	9.709731	-16.261206	
-0.054144	73.542211	-0.678483	19.755816	0.722890	85.049095	-34.006798	-54.159397	-13.648700	45.320404	68.290497	-57.936802	-12.805799	4.756609	28.032398	0.	0.	0.	-35.192398	-51.361095	-45.580894	-43.900394	68.254318	27.100710	1.331932	6.120798	9.546174	0.	0.	0.	0.000000	0.000002	-0.000000	-4.881370	21.697599	-34.172401	1.410380	5.648942	14.697200	-0.356697	-3.929398	-3.076179	-38.429707	-44.459515	-51.608292	15.362691	-25.080212	-38.549984	0.314503	7.529081	14.017602	-1.083548	-5.941688	-8.758655	12.454811	-65.381897	1.088428	-21.202499	-11.474402	-10.554101	-1.789701	10.349004	11.270999	-3.679740	9.635746	-16.652700	
